<?xml version="1.0" encoding="UTF-8" standalone="no"?>
<!-- Created with Inkscape (http://www.inkscape.org/) -->

<svg
   xmlns:dc="http://purl.org/dc/elements/1.1/"
   xmlns:cc="http://creativecommons.org/ns#"
   xmlns:rdf="http://www.w3.org/1999/02/22-rdf-syntax-ns#"
   xmlns:svg="http://www.w3.org/2000/svg"
   xmlns="http://www.w3.org/2000/svg"
   version="1.1"
   width="86.163048"
   height="81.452934"
   id="svg4089">
  <defs
     id="defs4091" />
  <metadata
     id="metadata4094">
    <rdf:RDF>
      <cc:Work
         rdf:about="">
        <dc:format>image/svg+xml</dc:format>
        <dc:type
           rdf:resource="http://purl.org/dc/dcmitype/StillImage" />
        <dc:title></dc:title>
      </cc:Work>
    </rdf:RDF>
  </metadata>
  <g
     transform="translate(-554.06134,-437.35)"
     id="layer1">
    <path
       d="m 43.34375,17.90625 c -10.543321,-0.02014 -21.172935,7.53098 -42.5,22.71875 42.46451,30.55097 42.31948,30.54383 84.46875,0 C 64.33268,25.5178 53.887071,17.926392 43.34375,17.90625 z m -0.25,6.5 c 9.01542,0 16.3125,7.29708 16.3125,16.3125 0,9.01542 -7.29708,16.34375 -16.3125,16.34375 -9.01541,0 -16.34375,-7.32833 -16.34375,-16.34375 0,-9.01542 7.32834,-16.3125 16.34375,-16.3125 z"
       transform="translate(554.06134,437.35)"
       id="path4145"
       style="fill:#ffffff;stroke:none" />
    <path
       d="m 604.07145,478.07647 c 0,3.82655 -3.10204,6.92858 -6.92859,6.92858 -3.82655,0 -6.92858,-3.10203 -6.92858,-6.92858 0,-3.82655 3.10203,-6.92859 6.92858,-6.92859 3.82655,0 6.92859,3.10204 6.92859,6.92859 z"
       id="path4150"
       style="fill:#ffffff;stroke:none" />
  </g>
</svg>
