<?xml version="1.0" encoding="UTF-8"?><svg xmlns="http://www.w3.org/2000/svg" width="16px" height="16px" viewBox="0 0 16 16" version="1.1"><path d="M5.60 6.07C5.52 5.88 5.46 5.76 5.43 5.72 4.59 4.81 4.67 2.99 4.71 2.43 4.75 1.87 6.15 2.04 6.32 2.04 5.99 4.11 6.06 5.31 6.52 5.64 7.44 4.29 8.73 3.48 10.40 3.23 12.90 2.86 16.78 6.78 15.12 9.47 14.02 11.26 12.15 12.65 9.52 13.64 6.36 14.66 3.57 13.86 1.16 11.23 -0.20 8.08 1.28 6.35 5.60 6.07ZM3.66 6.95 5.46 13.32 7.16 13.32 8.42 8.66 9.71 12.94 11.92 11.90 13.89 5.46 12.28 5.46 10.63 11.18 9.07 5.33 8.06 5.33 6.42 11.30 5.22 6.81 3.66 6.95Z"/></svg>
