<svg width="400" height="246" preserveAspectRatio="xMinYMin meet" viewBox="0 0 400 246" version="1.1" xmlns="http://www.w3.org/2000/svg"><title>Logomark</title><g stroke="none" stroke-width="1" fill="none" fill-rule="evenodd"><!--<path class="hat" d="M189.22 207.75C191.69 202.38 188.69 185.58 174.95 184.06 166.33 183.1 154.72 194.29 158.87 205.74 163.6 218.84 185.81 213.88 189.22 207.75" fill="#cfc7bb"/><path d="M246.15 203.84C243.3 198.64 245.13 181.65 258.81 179.16 267.38 177.59 279.8 187.95 276.44 199.68 272.6 213.1 249.99 209.71 246.15 203.84" fill="#cfc7bb"/><path d="M219.47 245.97C219.39 245.98 219.32 245.99 219.24 246 209.07 245.83 190.28 231.47 194.65 222.61 196.67 218.5 207.39 217.12 217.18 216.4 227.12 215.71 238.27 215.49 240.89 219.35 246.44 227.52 229.82 244.36 219.77 245.93" fill="#cfc7bb"/>--><path d="M138.52 66.71C129.25 38.03 138.43 6.4 138.43 6.4L116.15 10.15C116.15 10.15 114.04 41.61 125.33 65.18 62.16 44.12 16.4 77.19 2.94 118.31 -11.28 161.74 26.16 224.99 114.29 213.67 116.08 213.43 117.84 213.2 119.6 212.97 95.61 168.5 103.05 138.56 123.18 129.6 139.23 122.46 154.85 143.64 154.85 143.64 184.23 128.06 243.2 127.84 268.32 133.98 268.32 133.98 284.66 107.85 301.75 113.89 315.68 118.8 324.92 131.9 325.02 152.03 392.68 122.72 415.07 78.9 390.07 35.71 361.93-12.89 223.8-20.21 138.52 66.71Z" fill="#B13537"/></g></svg>