<?xml version="1.0" encoding="UTF-8" standalone="no"?>
<!-- Created with Inkscape (http://www.inkscape.org/) -->

<svg
   xmlns:dc="http://purl.org/dc/elements/1.1/"
   xmlns:cc="http://creativecommons.org/ns#"
   xmlns:rdf="http://www.w3.org/1999/02/22-rdf-syntax-ns#"
   xmlns:svg="http://www.w3.org/2000/svg"
   xmlns="http://www.w3.org/2000/svg"
   version="1.1"
   width="81.998199"
   height="52.995331"
   id="svg3413">
  <defs
     id="defs3415" />
  <metadata
     id="metadata3418">
    <rdf:RDF>
      <cc:Work
         rdf:about="">
        <dc:format>image/svg+xml</dc:format>
        <dc:type
           rdf:resource="http://purl.org/dc/dcmitype/StillImage" />
        <dc:title></dc:title>
      </cc:Work>
    </rdf:RDF>
  </metadata>
  <g
     transform="translate(-413.28661,-957.29307)"
     id="layer1">
    <path
       d="m 482.64174,980.15381 -21.6799,-12.84106 -23.97092,23.97092 c -2.87085,3.49311 -10.52174,3.76181 -16.50387,0.0283 -6.33567,-3.95979 -8.93783,-10.30961 -5.98919,-15.04016 2.96277,-4.73054 10.49346,-5.35987 16.83621,-1.393 2.62337,1.63342 4.53963,3.91737 5.70635,6.31447 l 18.99289,-18.99289 4.90732,-4.90732 34.34418,20.25861 -6.13769,6.13768 -23.86485,23.86484 c -2.86379,3.5002 -10.52175,3.776 -16.4968,0.035 -6.34275,-3.9668 -8.95198,-10.3096 -5.9892,-15.04014 2.94864,-4.73054 10.48639,-5.3528 16.82914,-1.40007 2.62337,1.64756 4.53963,3.91737 5.70635,6.31446 l 17.30998,-17.30994 z"
       id="path3240"
       style="fill:#ffffff;fill-rule:evenodd;stroke:none" />
  </g>
</svg>
