<svg width="16" height="16" viewBox="0 0 16 16" xmlns="http://www.w3.org/2000/svg"><path d="m11.3 1.33c-2.25-0.0471-4.66 1.2-5.66 4.29-1.43-2.26-1.47-3.82-1.47-3.82l-1.37 0.835s-0.0403 2.14 2.04 3.62c-6.64 1.19-6.27 8.02 0.157 7.74 0.737-0.0317-0.807 0.981 1.29 0.579 3.82-0.729 6.21-2.08 8.26-4.28 0.946-1.02-0.52-0.59 0.0766-1.37 3.28-4.3 0.18-7.52-3.32-7.59zm2.68 1.26-0.279 7.6-2.38 1.88-2.66-4.2-0.00982 5.49-1.94 0.623-4.11-6.44 1.75-0.672 2.82 4.44 0.0511-6.89 1.07-0.33 3.75 5.82 0.0354-6.75z"/></svg>