<svg width="400" height="246" viewBox="0 0 400 246" xmlns="http://www.w3.org/2000/svg"><path d="M138.52 66.71C129.25 38.03 138.43 6.4 138.43 6.4L116.15 10.15C116.15 10.15 114.04 41.61 125.33 65.18 62.16 44.12 16.4 77.19 2.94 118.31 -11.28 161.74 26.16 224.99 114.29 213.67 116.08 213.43 117.84 213.2 119.6 212.97 95.61 168.5 103.05 138.56 123.18 129.6 139.23 122.46 154.85 143.64 154.85 143.64 184.23 128.06 243.2 127.84 268.32 133.98 268.32 133.98 284.66 107.85 301.75 113.89 315.68 118.8 324.92 131.9 325.02 152.03 392.68 122.72 415.07 78.9 390.07 35.71 361.93-12.89 223.8-20.21 138.52 66.71Z" fill="#B13537"/></svg>