<?xml version="1.0" encoding="utf-8"?>
<!-- Generator: Adobe Illustrator 22.0.1, SVG Export Plug-In . SVG Version: 6.00 Build 0)  -->
<!DOCTYPE svg PUBLIC "-//W3C//DTD SVG 1.1//EN" "http://www.w3.org/Graphics/SVG/1.1/DTD/svg11.dtd">
<svg version="1.1" id="Layer_1" xmlns="http://www.w3.org/2000/svg" xmlns:xlink="http://www.w3.org/1999/xlink" x="0px" y="0px"
	 viewBox="0 0 90.2 159.3" style="enable-background:new 0 0 90.2 159.3;" xml:space="preserve">
<style type="text/css">
	.st0{fill:#FFFFFF;}
	.st1{fill:#001935;}
	.st2{fill:#231F20;}
</style>
<text transform="matrix(1 0 0 1 -696.6951 -356.281)" class="st0" style="font-family:'MyriadPro-Regular'; font-size:45.8156px;">Black #000000</text>
<text transform="matrix(1 0 0 1 -1587.3539 -356.281)"><tspan x="0" y="0" class="st0" style="font-family:'MyriadPro-Regular'; font-size:45.8156px;">Notes:</tspan><tspan x="0" y="110" class="st0" style="font-family:'MyriadPro-Regular'; font-size:45.8156px;">Always use the full wordmark</tspan><tspan x="0" y="164.9" class="st0" style="font-family:'MyriadPro-Regular'; font-size:45.8156px;">unless you’re explicitly speaking to </tspan><tspan x="0" y="219.9" class="st0" style="font-family:'MyriadPro-Regular'; font-size:45.8156px;">or marketing the iOS or Android app </tspan></text>
<text transform="matrix(1 0 0 1 -691.9711 189.9763)" class="st0" style="font-family:'MyriadPro-Regular'; font-size:21.8043px;">iOS icon</text>
<text transform="matrix(1 0 0 1 -696.6951 -111.0251)" class="st0" style="font-family:'MyriadPro-Regular'; font-size:21.8043px;">Wordmark (always use full word)</text>
<text transform="matrix(1 0 0 1 -369.3826 189.9763)" class="st0" style="font-family:'MyriadPro-Regular'; font-size:21.8043px;">Android Icon</text>
<text transform="matrix(1 0 0 1 -2.538842e-04 189.9763)" class="st0" style="font-family:'MyriadPro-Regular'; font-size:21.8043px;">t icon</text>
<text transform="matrix(1 0 0 1 -696.6951 363.683)" class="st0" style="font-family:'MyriadPro-Regular'; font-size:45.8156px;">White #000000</text>
<text transform="matrix(1 0 0 1 -691.9711 909.9404)" class="st0" style="font-family:'MyriadPro-Regular'; font-size:21.8043px;">iOS icon</text>
<text transform="matrix(1 0 0 1 -696.6951 608.9389)" class="st0" style="font-family:'MyriadPro-Regular'; font-size:21.8043px;">Wordmark (always use full word)</text>
<text transform="matrix(1 0 0 1 -369.3826 909.9404)" class="st0" style="font-family:'MyriadPro-Regular'; font-size:21.8043px;">Android Icon</text>
<text transform="matrix(1 0 0 1 -2.538842e-04 909.9404)" class="st0" style="font-family:'MyriadPro-Regular'; font-size:21.8043px;">t icon</text>
<text transform="matrix(1 0 0 1 239.2582 -356.281)" class="st0" style="font-family:'MyriadPro-Regular'; font-size:45.8156px;">Blue #001935</text>
<text transform="matrix(1 0 0 1 243.9822 189.9763)" class="st0" style="font-family:'MyriadPro-Regular'; font-size:21.8043px;">iOS icon</text>
<text transform="matrix(1 0 0 1 239.2582 -111.0251)" class="st0" style="font-family:'MyriadPro-Regular'; font-size:21.8043px;">Wordmark (always use full word)</text>
<text transform="matrix(1 0 0 1 566.5707 189.9763)" class="st0" style="font-family:'MyriadPro-Regular'; font-size:21.8043px;">Android Icon</text>
<text transform="matrix(1 0 0 1 935.953 189.9763)" class="st0" style="font-family:'MyriadPro-Regular'; font-size:21.8043px;">t icon</text>
<path class="st1" d="M302.9-147.5c-24,0-41.8-12.3-41.8-41.8v-47.2h-21.8v-25.6c24-6.2,34-26.8,35.1-44.7h24.9v40.6h29v29.7h-29
	v41.1c0,12.3,6.2,16.6,16.1,16.6h14.1v31.3H302.9z M391.9-146.1c13.6,0,29.3-5.9,37.8-16.4v15h44.8V-173h-11.4v-93.3H409v25.9h15.4
	v44.9c0,3.6-3,18.7-23.3,18.7c-13,0-15.4-7.8-15.4-17.7v-71.8h-39.9v73.4C345.8-174.6,354.1-146.1,391.9-146.1z M488.8-147.5h65.6
	V-173H541v-44.4c0-6.5,5.5-19.7,22.4-19.7c13.6,0,16.4,8.3,16.4,18.1v46h-13.2v25.5h65.1V-173H618v-44.4c0-6.5,5-19.7,21.9-19.7
	c13.7,0,17.1,8.3,17.1,18.1v46h-13v25.5h64.8V-173h-13.3v-41.5c0-24.4-9.2-53.2-45.6-53.2c-18,0-32.7,8.5-38.9,19
	c-7.8-11.9-19.7-19-37.4-19c-14.1,0-29.5,6-37.8,17.4v-16h-49.2v25.9h15.9v67.4h-13.5V-147.5z M791.8-146.1c33.2,0,51-24.9,51-62.2
	c0-35.8-16.6-59.3-50.3-59.3c-11.9,0-23.7,4.5-30.9,10v-49.2h-54.8v25.7h15.9v133.6h36.5V-158C768.6-150.2,779.7-146.1,791.8-146.1z
	 M783.5-175.1c-11.6,0-23-7.4-23-30.6c0-28,13.5-33,22.8-33c10.8,0,20.4,8.8,20.4,30.5C803.7-176.8,789.6-175.8,783.5-175.1z
	 M850-147.5h66V-173H902v-133.9h-54.4v25.7h15.9V-173H850V-147.5z M930.4-147.5h64.9V-173H982v-33.2c0-22.6,15.9-27.5,28-27.5h16.1
	v-34h-13c-14.7,0-28.3,7.1-34.4,18.5v-17.2h-49.4v25.9h14.3v67.4h-13.1V-147.5z"/>
<path class="st1" d="M999.6,159.3c-24,0-41.8-12.3-41.8-41.8V70.3H936V44.7c24-6.2,34-26.8,35.1-44.7H996v40.6h29v29.7h-29v41.1
	c0,12.3,6.2,16.6,16.1,16.6h14.1v31.3H999.6z"/>
<g>
	<path class="st1" d="M645.1,1.3c-43.4,0-78.6,35.1-78.6,78.3s35.1,78.5,78.6,78.5c43.2,0,78.3-35.3,78.3-78.5
		C723.5,36.2,688.3,1.3,645.1,1.3z"/>
	<path class="st0" d="M651.2,97.3c0,7.1,3.6,9.5,9.2,9.5h8.1v18h-15.3c-13.7,0-24-7.1-24-24V73.7h-12.5V59
		c13.7-3.6,19.5-15.4,20.2-25.6h14.3v23.3h16.6v17h-16.6V97.3"/>
</g>
<g>
	<path class="st1" d="M359.9,7.3h-87c-15.9,0-28.9,13-28.9,28.9v87c0,15.9,13,28.9,28.9,28.9h87c15.9,0,28.9-13,28.9-28.9v-87
		C388.8,20.3,375.8,7.3,359.9,7.3z"/>
	<path class="st0" d="M341.3,124.8h-15.3c-13.7,0-24-7.1-24-24V73.7h-12.5V59c13.7-3.6,19.5-15.4,20.2-25.6H324v23.3h16.6v17H324
		v23.6c0,7.1,3.6,9.5,9.2,9.5h8.1V124.8z"/>
</g>
<path class="st0" d="M-633.1,573.9c-24,0-41.8-12.3-41.8-41.8v-47.2h-21.8v-25.6c24-6.2,34-26.8,35.1-44.7h24.9v40.6h29v29.7h-29
	V526c0,12.3,6.2,16.6,16.1,16.6h14.1v31.3H-633.1z M-544,575.3c13.6,0,29.3-5.9,37.8-16.4v15h44.8v-25.5h-11.4v-93.3H-527v25.9h15.4
	V526c0,3.6-3,18.7-23.3,18.7c-13,0-15.4-7.8-15.4-17.7v-71.8h-39.9v73.4C-590.1,546.9-581.8,575.3-544,575.3z M-447.1,573.9h65.6
	v-25.5h-13.4v-44.4c0-6.5,5.5-19.7,22.4-19.7c13.6,0,16.4,8.3,16.4,18.1v46h-13.2v25.5h65.1v-25.5H-318v-44.4
	c0-6.5,5-19.7,21.9-19.7c13.7,0,17.1,8.3,17.1,18.1v46h-13v25.5h64.8v-25.5h-13.3V507c0-24.4-9.2-53.2-45.6-53.2
	c-18,0-32.7,8.5-38.9,19c-7.8-11.9-19.7-19-37.4-19c-14.1,0-29.5,6-37.8,17.4v-16h-49.2v25.9h15.9v67.4h-13.5V573.9z M-144.1,575.3
	c33.2,0,51-24.9,51-62.2c0-35.8-16.6-59.3-50.3-59.3c-11.9,0-23.7,4.5-30.9,10v-49.2h-54.8v25.7h15.9v133.6h36.5v-10.5
	C-167.4,571.3-156.2,575.3-144.1,575.3z M-152.4,546.4c-11.6,0-23-7.4-23-30.6c0-28,13.5-33,22.8-33c10.8,0,20.4,8.8,20.4,30.5
	C-132.3,544.7-146.3,545.7-152.4,546.4z M-85.9,573.9h66v-25.5H-34V414.6h-54.4v25.7h15.9v108.2h-13.5V573.9z M-5.5,573.9h64.9
	v-25.5H46.1v-33.2c0-22.6,15.9-27.5,28-27.5h16.1v-34h-13c-14.7,0-28.3,7.1-34.4,18.5v-17.2H-6.7v25.9H7.6v67.4H-5.5V573.9z"/>
<path class="st0" d="M63.6,880.8c-24,0-41.8-12.3-41.8-41.8v-47.2H0v-25.6c24-6.2,34-26.8,35.1-44.7H60V762h29v29.7H60v41.1
	c0,12.3,6.2,16.6,16.1,16.6h14.1v31.3H63.6z"/>
<g>
	<path class="st0" d="M-290.8,722.7c-43.4,0-78.6,35.1-78.6,78.3c0,43.2,35.1,78.5,78.6,78.5c43.2,0,78.3-35.3,78.3-78.5
		C-212.5,757.6-247.6,722.7-290.8,722.7z"/>
	<path class="st2" d="M-284.7,818.8c0,7.1,3.6,9.5,9.2,9.5h8.1v18h-15.3c-13.7,0-24-7.1-24-24v-27.1h-12.5v-14.7
		c13.7-3.6,19.5-15.4,20.2-25.6h14.3v23.3h16.6v17h-16.6V818.8"/>
</g>
<g>
	<path class="st0" d="M-576.1,728.7h-87c-15.9,0-28.9,13-28.9,28.9v87c0,15.9,13,28.9,28.9,28.9h87c15.9,0,28.9-13,28.9-28.9v-87
		C-547.1,741.7-560.2,728.7-576.1,728.7z"/>
	<path class="st2" d="M-594.6,846.2h-15.3c-13.7,0-24-7.1-24-24v-27.1h-12.5v-14.7c13.7-3.6,19.5-15.4,20.2-25.6h14.3v23.3h16.6v17
		h-16.6v23.6c0,7.1,3.6,9.5,9.2,9.5h8.1V846.2z"/>
</g>
<path d="M-633.1-147.5c-24,0-41.8-12.3-41.8-41.8v-47.2h-21.8v-25.6c24-6.2,34-26.8,35.1-44.7h24.9v40.6h29v29.7h-29v41.1
	c0,12.3,6.2,16.6,16.1,16.6h14.1v31.3H-633.1z M-544-146.1c13.6,0,29.3-5.9,37.8-16.4v15h44.8V-173h-11.4v-93.3H-527v25.9h15.4v44.9
	c0,3.6-3,18.7-23.3,18.7c-13,0-15.4-7.8-15.4-17.7v-71.8h-39.9v73.4C-590.1-174.6-581.8-146.1-544-146.1z M-447.1-147.5h65.6V-173
	h-13.4v-44.4c0-6.5,5.5-19.7,22.4-19.7c13.6,0,16.4,8.3,16.4,18.1v46h-13.2v25.5h65.1V-173H-318v-44.4c0-6.5,5-19.7,21.9-19.7
	c13.7,0,17.1,8.3,17.1,18.1v46h-13v25.5h64.8V-173h-13.3v-41.5c0-24.4-9.2-53.2-45.6-53.2c-18,0-32.7,8.5-38.9,19
	c-7.8-11.9-19.7-19-37.4-19c-14.1,0-29.5,6-37.8,17.4v-16h-49.2v25.9h15.9v67.4h-13.5V-147.5z M-144.1-146.1c33.2,0,51-24.9,51-62.2
	c0-35.8-16.6-59.3-50.3-59.3c-11.9,0-23.7,4.5-30.9,10v-49.2h-54.8v25.7h15.9v133.6h36.5V-158C-167.4-150.2-156.2-146.1-144.1-146.1
	z M-152.4-175.1c-11.6,0-23-7.4-23-30.6c0-28,13.5-33,22.8-33c10.8,0,20.4,8.8,20.4,30.5C-132.3-176.8-146.3-175.8-152.4-175.1z
	 M-85.9-147.5h66V-173H-34v-133.9h-54.4v25.7h15.9V-173h-13.5V-147.5z M-5.5-147.5h64.9V-173H46.1v-33.2c0-22.6,15.9-27.5,28-27.5
	h16.1v-34h-13c-14.7,0-28.3,7.1-34.4,18.5v-17.2H-6.7v25.9H7.6v67.4H-5.5V-147.5z"/>
<path d="M63.6,159.3c-24,0-41.8-12.3-41.8-41.8V70.3H0V44.7C24,38.5,34,17.9,35.1,0H60v40.6h29v29.7H60v41.1
	c0,12.3,6.2,16.6,16.1,16.6h14.1v31.3H63.6z"/>
<g>
	<path d="M-290.8,1.3c-43.4,0-78.6,35.1-78.6,78.3s35.1,78.5,78.6,78.5c43.2,0,78.3-35.3,78.3-78.5C-212.5,36.2-247.6,1.3-290.8,1.3
		z"/>
	<path class="st0" d="M-284.7,97.3c0,7.1,3.6,9.5,9.2,9.5h8.1v18h-15.3c-13.7,0-24-7.1-24-24V73.7h-12.5V59
		c13.7-3.6,19.5-15.4,20.2-25.6h14.3v23.3h16.6v17h-16.6V97.3"/>
</g>
<g>
	<path d="M-576.1,7.3h-87c-15.9,0-28.9,13-28.9,28.9v87c0,15.9,13,28.9,28.9,28.9h87c15.9,0,28.9-13,28.9-28.9v-87
		C-547.1,20.3-560.2,7.3-576.1,7.3z"/>
	<path class="st0" d="M-594.6,124.8h-15.3c-13.7,0-24-7.1-24-24V73.7h-12.5V59c13.7-3.6,19.5-15.4,20.2-25.6h14.3v23.3h16.6v17
		h-16.6v23.6c0,7.1,3.6,9.5,9.2,9.5h8.1V124.8z"/>
</g>
</svg>
